<svg xmlns="http://www.w3.org/2000/svg" width="760" height="360" viewBox="0 0 760 360">
<rect width="100%" height="100%" fill="#fff" />
<text x="24" y="30" font-family="Arial, sans-serif" font-size="20" font-weight="700" text-anchor="start" fill="#222">Cost Multiplier Scaling</text>
<line x1="72" y1="278" x2="632" y2="278" stroke="#777" />
<line x1="72" y1="48" x2="72" y2="278" stroke="#777" />
<line x1="72.0" y1="278" x2="72.0" y2="283" stroke="#777" />
<text x="72.0" y="302" font-family="Arial, sans-serif" font-size="12" font-weight="400" text-anchor="middle" fill="#222">12</text>
<line x1="287.38461538461536" y1="278" x2="287.38461538461536" y2="283" stroke="#777" />
<text x="287.38461538461536" y="302" font-family="Arial, sans-serif" font-size="12" font-weight="400" text-anchor="middle" fill="#222">32</text>
<line x1="632.0" y1="278" x2="632.0" y2="283" stroke="#777" />
<text x="632.0" y="302" font-family="Arial, sans-serif" font-size="12" font-weight="400" text-anchor="middle" fill="#222">64</text>
<text x="352.0" y="344" font-family="Arial, sans-serif" font-size="12" font-weight="400" text-anchor="middle" fill="#222">generated token budget</text>
<text x="16" y="58" font-family="Arial, sans-serif" font-size="12" font-weight="400" text-anchor="start" fill="#222">x</text>
<polyline points="72.00,242.78 287.38,242.78 632.00,242.78" fill="none" stroke="#109d58" stroke-width="3" />
<circle cx="72.00" cy="242.78" r="4" fill="#109d58" />
<text x="80.0" y="234.7846889952153" font-family="Arial, sans-serif" font-size="11" font-weight="400" text-anchor="start" fill="#222">1.00</text>
<circle cx="287.38" cy="242.78" r="4" fill="#109d58" />
<text x="295.38461538461536" y="234.7846889952153" font-family="Arial, sans-serif" font-size="11" font-weight="400" text-anchor="start" fill="#222">1.00</text>
<circle cx="632.00" cy="242.78" r="4" fill="#109d58" />
<text x="640.0" y="234.7846889952153" font-family="Arial, sans-serif" font-size="11" font-weight="400" text-anchor="start" fill="#222">1.00</text>
<rect x="650" y="47" width="12" height="12" fill="#109d58" />
<text x="668" y="58" font-family="Arial, sans-serif" font-size="12" font-weight="400" text-anchor="start" fill="#222">standard</text>
<polyline points="72.00,242.78 287.38,242.78 632.00,242.78" fill="none" stroke="#f4b400" stroke-width="3" />
<circle cx="72.00" cy="242.78" r="4" fill="#f4b400" />
<text x="80.0" y="234.7846889952153" font-family="Arial, sans-serif" font-size="11" font-weight="400" text-anchor="start" fill="#222">1.00</text>
<circle cx="287.38" cy="242.78" r="4" fill="#f4b400" />
<text x="295.38461538461536" y="234.7846889952153" font-family="Arial, sans-serif" font-size="11" font-weight="400" text-anchor="start" fill="#222">1.00</text>
<circle cx="632.00" cy="242.78" r="4" fill="#f4b400" />
<text x="640.0" y="234.7846889952153" font-family="Arial, sans-serif" font-size="11" font-weight="400" text-anchor="start" fill="#222">1.00</text>
<rect x="650" y="69" width="12" height="12" fill="#f4b400" />
<text x="668" y="80" font-family="Arial, sans-serif" font-size="12" font-weight="400" text-anchor="start" fill="#222">temperature</text>
<polyline points="72.00,100.95 287.38,48.00 632.00,95.50" fill="none" stroke="#db4437" stroke-width="3" />
<circle cx="72.00" cy="100.95" r="4" fill="#db4437" />
<text x="80.0" y="92.94524189261031" font-family="Arial, sans-serif" font-size="11" font-weight="400" text-anchor="start" fill="#222">5.03</text>
<circle cx="287.38" cy="48.00" r="4" fill="#db4437" />
<text x="295.38461538461536" y="40.0" font-family="Arial, sans-serif" font-size="11" font-weight="400" text-anchor="start" fill="#222">6.53</text>
<circle cx="632.00" cy="95.50" r="4" fill="#db4437" />
<text x="640.0" y="87.50398724082933" font-family="Arial, sans-serif" font-size="11" font-weight="400" text-anchor="start" fill="#222">5.18</text>
<rect x="650" y="91" width="12" height="12" fill="#db4437" />
<text x="668" y="102" font-family="Arial, sans-serif" font-size="12" font-weight="400" text-anchor="start" fill="#222">power-fast</text>
</svg>
