<svg xmlns="http://www.w3.org/2000/svg" width="760" height="360" viewBox="0 0 760 360">
<rect width="100%" height="100%" fill="#fff" />
<text x="24" y="30" font-family="Arial, sans-serif" font-size="20" font-weight="700" text-anchor="start" fill="#222">Latency Scaling</text>
<line x1="72" y1="278" x2="632" y2="278" stroke="#777" />
<line x1="72" y1="48" x2="72" y2="278" stroke="#777" />
<line x1="72.0" y1="278" x2="72.0" y2="283" stroke="#777" />
<text x="72.0" y="302" font-family="Arial, sans-serif" font-size="12" font-weight="400" text-anchor="middle" fill="#222">12</text>
<line x1="287.38461538461536" y1="278" x2="287.38461538461536" y2="283" stroke="#777" />
<text x="287.38461538461536" y="302" font-family="Arial, sans-serif" font-size="12" font-weight="400" text-anchor="middle" fill="#222">32</text>
<line x1="632.0" y1="278" x2="632.0" y2="283" stroke="#777" />
<text x="632.0" y="302" font-family="Arial, sans-serif" font-size="12" font-weight="400" text-anchor="middle" fill="#222">64</text>
<text x="352.0" y="344" font-family="Arial, sans-serif" font-size="12" font-weight="400" text-anchor="middle" fill="#222">generated token budget</text>
<text x="16" y="58" font-family="Arial, sans-serif" font-size="12" font-weight="400" text-anchor="start" fill="#222">seconds</text>
<polyline points="72.00,269.76 287.38,251.41 632.00,249.73" fill="none" stroke="#109d58" stroke-width="3" />
<circle cx="72.00" cy="269.76" r="4" fill="#109d58" />
<text x="80.0" y="261.75875215055066" font-family="Arial, sans-serif" font-size="11" font-weight="400" text-anchor="start" fill="#222">0.23</text>
<circle cx="287.38" cy="251.41" r="4" fill="#109d58" />
<text x="295.38461538461536" y="243.41279772001707" font-family="Arial, sans-serif" font-size="11" font-weight="400" text-anchor="start" fill="#222">0.74</text>
<circle cx="632.00" cy="249.73" r="4" fill="#109d58" />
<text x="640.0" y="241.7284808749725" font-family="Arial, sans-serif" font-size="11" font-weight="400" text-anchor="start" fill="#222">0.78</text>
<rect x="650" y="47" width="12" height="12" fill="#109d58" />
<text x="668" y="58" font-family="Arial, sans-serif" font-size="12" font-weight="400" text-anchor="start" fill="#222">standard</text>
<polyline points="72.00,270.44 287.38,260.83 632.00,251.30" fill="none" stroke="#f4b400" stroke-width="3" />
<circle cx="72.00" cy="270.44" r="4" fill="#f4b400" />
<text x="80.0" y="262.44484531412485" font-family="Arial, sans-serif" font-size="11" font-weight="400" text-anchor="start" fill="#222">0.21</text>
<circle cx="287.38" cy="260.83" r="4" fill="#f4b400" />
<text x="295.38461538461536" y="252.82617797736748" font-family="Arial, sans-serif" font-size="11" font-weight="400" text-anchor="start" fill="#222">0.48</text>
<circle cx="632.00" cy="251.30" r="4" fill="#f4b400" />
<text x="640.0" y="243.29567157717463" font-family="Arial, sans-serif" font-size="11" font-weight="400" text-anchor="start" fill="#222">0.74</text>
<rect x="650" y="69" width="12" height="12" fill="#f4b400" />
<text x="668" y="80" font-family="Arial, sans-serif" font-size="12" font-weight="400" text-anchor="start" fill="#222">temperature</text>
<polyline points="72.00,216.23 287.38,124.20 632.00,48.00" fill="none" stroke="#db4437" stroke-width="3" />
<circle cx="72.00" cy="216.23" r="4" fill="#db4437" />
<text x="80.0" y="208.2251472514239" font-family="Arial, sans-serif" font-size="11" font-weight="400" text-anchor="start" fill="#222">1.71</text>
<circle cx="287.38" cy="124.20" r="4" fill="#db4437" />
<text x="295.38461538461536" y="116.20313017568068" font-family="Arial, sans-serif" font-size="11" font-weight="400" text-anchor="start" fill="#222">4.26</text>
<circle cx="632.00" cy="48.00" r="4" fill="#db4437" />
<text x="640.0" y="40.0" font-family="Arial, sans-serif" font-size="11" font-weight="400" text-anchor="start" fill="#222">6.37</text>
<rect x="650" y="91" width="12" height="12" fill="#db4437" />
<text x="668" y="102" font-family="Arial, sans-serif" font-size="12" font-weight="400" text-anchor="start" fill="#222">power-fast</text>
</svg>
